<svg width="24" height="24" viewBox="0 0 24 24" fill="none" xmlns="http://www.w3.org/2000/svg">
<path d="M5 22C3.75 22 2.76667 21.65 2.05 20.95C1.35 20.2333 1 19.25 1 18V17.9C1 16.9333 1.40833 16.0833 2.225 15.35C3.04167 14.6 4.14167 14.025 5.525 13.625C6.90833 13.2083 8.4 13 10 13C11.6167 13 13.1083 13.2083 14.475 13.625C15.8583 14.025 16.9583 14.6 17.775 15.35C18.5917 16.0833 19 16.9333 19 17.9V18C19 19.25 18.6417 20.2333 17.925 20.95C17.225 21.65 16.25 22 15 22H5ZM15 20C15.7667 20 16.2917 19.8583 16.575 19.575C16.8583 19.2917 17 18.7667 17 18V17.9C17 17.3667 16.7 16.8833 16.1 16.45C15.5167 16 14.6917 15.65 13.625 15.4C12.575 15.1333 11.3667 15 10 15C8.65 15 7.44167 15.1333 6.375 15.4C5.30833 15.65 4.475 16 3.875 16.45C3.29167 16.8833 3 17.3667 3 17.9V18C3 18.7667 3.14167 19.2917 3.425 19.575C3.70833 19.8583 4.23333 20 5 20H15ZM10 12C9.08333 12 8.24167 11.775 7.475 11.325C6.725 10.875 6.125 10.275 5.675 9.525C5.225 8.75833 5 7.91667 5 7C5 6.08333 5.225 5.24167 5.675 4.475C6.125 3.70833 6.725 3.10833 7.475 2.675C8.24167 2.225 9.08333 2 10 2C10.9167 2 11.7583 2.225 12.525 2.675C13.2917 3.10833 13.8917 3.70833 14.325 4.475C14.775 5.24167 15 6.08333 15 7C15 7.91667 14.775 8.75833 14.325 9.525C13.8917 10.275 13.2917 10.875 12.525 11.325C11.7583 11.775 10.9167 12 10 12ZM10 10C10.6 10 11.125 9.875 11.575 9.625C12.025 9.375 12.375 9.025 12.625 8.575C12.875 8.125 13 7.6 13 7C13 6.4 12.875 5.875 12.625 5.425C12.375 4.975 12.025 4.625 11.575 4.375C11.125 4.125 10.6 4 10 4C9.4 4 8.875 4.125 8.425 4.375C7.975 4.625 7.625 4.975 7.375 5.425C7.125 5.875 7 6.4 7 7C7 7.6 7.125 8.125 7.375 8.575C7.625 9.025 7.975 9.375 8.425 9.625C8.875 9.875 9.4 10 10 10ZM22 10C22.4167 10 22.7 10.1667 22.85 10.5C23.0167 10.8333 23.0167 11.1667 22.85 11.5C22.7 11.8333 22.4167 12 22 12H16C15.5833 12 15.2917 11.8333 15.125 11.5C14.975 11.1667 14.975 10.8333 15.125 10.5C15.2917 10.1667 15.5833 10 16 10H22ZM20 14C20 14.4167 19.8333 14.7083 19.5 14.875C19.1667 15.025 18.8333 15.025 18.5 14.875C18.1667 14.7083 18 14.4167 18 14V8C18 7.58333 18.1667 7.3 18.5 7.15C18.8333 6.98333 19.1667 6.98333 19.5 7.15C19.8333 7.3 20 7.58333 20 8V14Z" fill="#181A1B"/>
</svg>
