<svg width="24" height="24" viewBox="0 0 24 24" fill="none" xmlns="http://www.w3.org/2000/svg">
<path d="M12 22C10.4167 22 8.90833 21.6333 7.475 20.9L4.575 21.625C4.075 21.7583 3.63333 21.75 3.25 21.6C2.86667 21.4333 2.59167 21.1583 2.425 20.775C2.25833 20.3917 2.24167 19.95 2.375 19.45L3.1 16.525C2.36667 15.0917 2 13.5833 2 12C2 10.1833 2.45 8.50833 3.35 6.975C4.25 5.44167 5.45833 4.23333 6.975 3.35C8.50833 2.45 10.1833 2 12 2C13.8167 2 15.4917 2.45 17.025 3.35C18.5583 4.23333 19.7667 5.44167 20.65 6.975C21.55 8.50833 22 10.1833 22 12C22 13.8167 21.55 15.4917 20.65 17.025C19.7667 18.5417 18.5583 19.75 17.025 20.65C15.4917 21.55 13.8167 22 12 22ZM4.3 19.925C4.26667 20.075 4.18333 20.0833 4.05 19.95C3.91667 19.8167 3.91667 19.7333 4.05 19.7L7.425 18.875C7.525 18.8417 7.625 18.8333 7.725 18.85C7.84167 18.8667 7.95 18.9083 8.05 18.975C8.66667 19.3083 9.3 19.5667 9.95 19.75C10.6 19.9167 11.2833 20 12 20C13.5 20 14.8583 19.65 16.075 18.95C17.2917 18.25 18.25 17.2917 18.95 16.075C19.65 14.8583 20 13.5 20 12C20 10.5 19.65 9.14167 18.95 7.925C18.25 6.70833 17.2917 5.75 16.075 5.05C14.8583 4.35 13.5 4 12 4C10.5 4 9.14167 4.35 7.925 5.05C6.70833 5.75 5.75 6.70833 5.05 7.925C4.35 9.14167 4 10.5 4 12C4 12.7167 4.08333 13.4 4.25 14.05C4.43333 14.7 4.69167 15.3333 5.025 15.95C5.15833 16.15 5.19167 16.35 5.125 16.55L4.3 19.925ZM8 15C7.58333 15 7.29167 14.8333 7.125 14.5C6.975 14.1667 6.975 13.8333 7.125 13.5C7.29167 13.1667 7.58333 13 8 13H12C12.4167 13 12.7 13.1667 12.85 13.5C13.0167 13.8333 13.0167 14.1667 12.85 14.5C12.7 14.8333 12.4167 15 12 15H8ZM8 11C7.58333 11 7.29167 10.8333 7.125 10.5C6.975 10.1667 6.975 9.83333 7.125 9.5C7.29167 9.16667 7.58333 9 8 9H16C16.4167 9 16.7 9.16667 16.85 9.5C17.0167 9.83333 17.0167 10.1667 16.85 10.5C16.7 10.8333 16.4167 11 16 11H8Z" fill="#181A1B"/>
</svg>
