<svg width="20" height="20" viewBox="0 0 20 20" fill="none" xmlns="http://www.w3.org/2000/svg">
<path d="M10 20C8.2 20 6.53333 19.55 5 18.65C3.46667 17.75 2.25 16.5333 1.35 15C0.45 13.4667 5.96046e-08 11.8 5.96046e-08 10C5.96046e-08 8.2 0.45 6.53333 1.35 5C2.25 3.45 3.46667 2.23333 5 1.35C6.53333 0.449999 8.2 -4.76837e-07 10 -4.76837e-07C11.8 -4.76837e-07 13.4667 0.449999 15 1.35C16.55 2.23333 17.7667 3.45 18.65 5C19.55 6.53333 20 8.2 20 10C20 11.8 19.55 13.4667 18.65 15C17.7667 16.5333 16.55 17.75 15 18.65C13.4667 19.55 11.8 20 10 20ZM10 18C11.4833 18 12.8333 17.65 14.05 16.95C15.2833 16.25 16.25 15.2917 16.95 14.075C17.65 12.8417 18 11.4833 18 10C18 8.51667 17.65 7.16667 16.95 5.95C16.25 4.71667 15.2833 3.75 14.05 3.05C12.8333 2.35 11.4833 2 10 2C8.51667 2 7.15833 2.35 5.925 3.05C4.70833 3.75 3.75 4.71667 3.05 5.95C2.35 7.16667 2 8.51667 2 10C2 11.4833 2.35 12.8417 3.05 14.075C3.75 15.2917 4.70833 16.25 5.925 16.95C7.15833 17.65 8.51667 18 10 18ZM10 14.5C9.35 14.5 8.7 14.4 8.05 14.2C7.41667 13.9833 6.85833 13.675 6.375 13.275C6.025 13.0083 5.9 12.7 6 12.35C6.1 11.9833 6.325 11.7333 6.675 11.6C7.04167 11.45 7.36667 11.4917 7.65 11.725C7.96667 11.9917 8.31667 12.1917 8.7 12.325C9.08333 12.4417 9.51667 12.5 10 12.5C10.4833 12.5 10.9167 12.4417 11.3 12.325C11.6833 12.1917 12.0417 11.9917 12.375 11.725C12.6417 11.4917 12.9583 11.45 13.325 11.6C13.6917 11.7333 13.9167 11.975 14 12.325C14.1 12.675 13.9833 12.9917 13.65 13.275C13.15 13.675 12.5833 13.9833 11.95 14.2C11.3167 14.4 10.6667 14.5 10 14.5ZM12 8C12 7.58333 12.1667 7.3 12.5 7.15C12.8333 6.98333 13.1667 6.98333 13.5 7.15C13.8333 7.3 14 7.58333 14 8V9C14 9.41667 13.8333 9.70833 13.5 9.875C13.1667 10.025 12.8333 10.025 12.5 9.875C12.1667 9.70833 12 9.41667 12 9V8ZM6 8C6 7.58333 6.16667 7.3 6.5 7.15C6.83333 6.98333 7.16667 6.98333 7.5 7.15C7.83333 7.3 8 7.58333 8 8V9C8 9.41667 7.83333 9.70833 7.5 9.875C7.16667 10.025 6.83333 10.025 6.5 9.875C6.16667 9.70833 6 9.41667 6 9V8Z" fill="#A3A8AE"/>
</svg>
