<svg width="24" height="24" viewBox="0 0 24 24" fill="none" xmlns="http://www.w3.org/2000/svg">
<path d="M12 22C10.2 22 8.53333 21.55 7 20.65C5.46667 19.75 4.25 18.5333 3.35 17C2.45 15.4667 2 13.8 2 12C2 10.2 2.45 8.53333 3.35 7C4.25 5.45 5.46667 4.23333 7 3.35C8.53333 2.45 10.2 2 12 2C13.8 2 15.4667 2.45 17 3.35C18.55 4.23333 19.7667 5.45 20.65 7C21.55 8.53333 22 10.2 22 12C22 13.8 21.55 15.4667 20.65 17C19.7667 18.5333 18.55 19.75 17 20.65C15.4667 21.55 13.8 22 12 22ZM12 20C13.4833 20 14.8333 19.65 16.05 18.95C17.2833 18.25 18.25 17.2917 18.95 16.075C19.65 14.8417 20 13.4833 20 12C20 10.5167 19.65 9.16667 18.95 7.95C18.25 6.71667 17.2833 5.75 16.05 5.05C14.8333 4.35 13.4833 4 12 4C10.5167 4 9.15833 4.35 7.925 5.05C6.70833 5.75 5.75 6.71667 5.05 7.95C4.35 9.16667 4 10.5167 4 12C4 13.4833 4.35 14.8417 5.05 16.075C5.75 17.2917 6.70833 18.25 7.925 18.95C9.15833 19.65 10.5167 20 12 20ZM12 16.5C11.35 16.5 10.7 16.4 10.05 16.2C9.41667 15.9833 8.85833 15.675 8.375 15.275C8.025 15.0083 7.9 14.7 8 14.35C8.1 13.9833 8.325 13.7333 8.675 13.6C9.04167 13.45 9.36667 13.4917 9.65 13.725C9.96667 13.9917 10.3167 14.1917 10.7 14.325C11.0833 14.4417 11.5167 14.5 12 14.5C12.4833 14.5 12.9167 14.4417 13.3 14.325C13.6833 14.1917 14.0417 13.9917 14.375 13.725C14.6417 13.4917 14.9583 13.45 15.325 13.6C15.6917 13.7333 15.9167 13.975 16 14.325C16.1 14.675 15.9833 14.9917 15.65 15.275C15.15 15.675 14.5833 15.9833 13.95 16.2C13.3167 16.4 12.6667 16.5 12 16.5ZM14 10C14 9.58333 14.1667 9.3 14.5 9.15C14.8333 8.98333 15.1667 8.98333 15.5 9.15C15.8333 9.3 16 9.58333 16 10V11C16 11.4167 15.8333 11.7083 15.5 11.875C15.1667 12.025 14.8333 12.025 14.5 11.875C14.1667 11.7083 14 11.4167 14 11V10ZM8 10C8 9.58333 8.16667 9.3 8.5 9.15C8.83333 8.98333 9.16667 8.98333 9.5 9.15C9.83333 9.3 10 9.58333 10 10V11C10 11.4167 9.83333 11.7083 9.5 11.875C9.16667 12.025 8.83333 12.025 8.5 11.875C8.16667 11.7083 8 11.4167 8 11V10Z" fill="#A3A8AE"/>
</svg>
