<svg width="24" height="24" viewBox="0 0 24 24" fill="none" xmlns="http://www.w3.org/2000/svg">
<path d="M6 22C4.75 22 3.76667 21.65 3.05 20.95C2.35 20.2333 2 19.25 2 18V17.9C2 16.9167 2.45833 16.0583 3.375 15.325C4.29167 14.575 5.50833 14 7.025 13.6C8.54167 13.2 10.2 13 12 13C13.8 13 15.4583 13.2 16.975 13.6C18.4917 14 19.7083 14.575 20.625 15.325C21.5417 16.0583 22 16.9167 22 17.9V18C22 19.25 21.6417 20.2333 20.925 20.95C20.225 21.65 19.25 22 18 22H6ZM4 18C4 18.7667 4.14167 19.2917 4.425 19.575C4.70833 19.8583 5.23333 20 6 20H18C18.7667 20 19.2917 19.8583 19.575 19.575C19.8583 19.2917 20 18.7667 20 18V17.9C20 17.3833 19.6583 16.9 18.975 16.45C18.2917 16 17.3417 15.65 16.125 15.4C14.925 15.1333 13.55 15 12 15C10.4667 15 9.09167 15.1333 7.875 15.4C6.65833 15.65 5.70833 16 5.025 16.45C4.34167 16.9 4 17.3833 4 17.9V18ZM12 12C11.0833 12 10.2417 11.775 9.475 11.325C8.725 10.875 8.125 10.275 7.675 9.525C7.225 8.75833 7 7.91667 7 7C7 6.08333 7.225 5.24167 7.675 4.475C8.125 3.70833 8.725 3.10833 9.475 2.675C10.2417 2.225 11.0833 2 12 2C12.9167 2 13.7583 2.225 14.525 2.675C15.2917 3.10833 15.8917 3.70833 16.325 4.475C16.775 5.24167 17 6.08333 17 7C17 7.91667 16.775 8.75833 16.325 9.525C15.8917 10.275 15.2917 10.875 14.525 11.325C13.7583 11.775 12.9167 12 12 12ZM12 10C12.6 10 13.125 9.875 13.575 9.625C14.025 9.375 14.375 9.025 14.625 8.575C14.875 8.125 15 7.6 15 7C15 6.4 14.875 5.875 14.625 5.425C14.375 4.975 14.025 4.625 13.575 4.375C13.125 4.125 12.6 4 12 4C11.4 4 10.875 4.125 10.425 4.375C9.975 4.625 9.625 4.975 9.375 5.425C9.125 5.875 9 6.4 9 7C9 7.6 9.125 8.125 9.375 8.575C9.625 9.025 9.975 9.375 10.425 9.625C10.875 9.875 11.4 10 12 10Z" fill="#181A1B"/>
</svg>
