<svg width="44" height="44" viewBox="0 0 44 44" fill="none" xmlns="http://www.w3.org/2000/svg">
<rect width="44" height="44" rx="22" fill="#FF7F7F"/>
<path d="M13.0571 20C13.0571 19.0572 13.0571 18.5858 13.35 18.2929C13.6429 18 14.1143 18 15.0571 18H29.0571C29.9999 18 30.4713 18 30.7642 18.2929C31.0571 18.5858 31.0571 19.0572 31.0571 20V21.5C31.0571 21.9659 31.0571 22.1989 30.981 22.3827C30.8795 22.6277 30.6848 22.8224 30.4398 22.9239C30.256 23 30.0231 23 29.5571 23V23C29.0912 23 28.8582 23 28.6744 23.0761C28.4294 23.1776 28.2347 23.3723 28.1332 23.6173C28.0571 23.8011 28.0571 24.0341 28.0571 24.5V28C28.0571 28.9428 28.0571 29.4142 27.7642 29.7071C27.4713 30 26.9999 30 26.0571 30H18.0571C17.1143 30 16.6429 30 16.35 29.7071C16.0571 29.4142 16.0571 28.9428 16.0571 28V24.5C16.0571 24.0341 16.0571 23.8011 15.981 23.6173C15.8795 23.3723 15.6848 23.1776 15.4398 23.0761C15.256 23 15.0231 23 14.5571 23V23C14.0912 23 13.8582 23 13.6744 22.9239C13.4294 22.8224 13.2347 22.6277 13.1332 22.3827C13.0571 22.1989 13.0571 21.9659 13.0571 21.5V20Z" stroke="white" stroke-width="1.75"/>
<path d="M15.0571 23H29.0571" stroke="white" stroke-width="1.75" stroke-linecap="round"/>
<path d="M22.0571 17L22.0571 30" stroke="white" stroke-width="1.75" stroke-linecap="round"/>
<path d="M22.0571 17L21.1786 16.1214C20.1123 15.0551 18.8123 14.2517 17.3817 13.7749V13.7749C16.2381 13.3937 15.0571 14.2449 15.0571 15.4503V15.6325C15.0571 16.4491 15.5797 17.1742 16.3545 17.4325L18.0571 18" stroke="white" stroke-width="1.75" stroke-linecap="round"/>
<path d="M22.0571 17L22.9357 16.1214C24.002 15.0551 25.3019 14.2517 26.7325 13.7749V13.7749C27.8761 13.3937 29.0571 14.2449 29.0571 15.4503V15.6325C29.0571 16.4491 28.5345 17.1742 27.7598 17.4325L26.0571 18" stroke="white" stroke-width="1.75" stroke-linecap="round"/>
</svg>
