<svg width="68" height="14" viewBox="0 0 68 14" fill="none" xmlns="http://www.w3.org/2000/svg">
<path fill-rule="evenodd" clip-rule="evenodd" d="M46.5894 1.15997H61.4106C62.6587 1.15997 63.1113 1.28993 63.5676 1.53396C64.0239 1.77799 64.382 2.13609 64.626 2.59239C64.87 3.04869 65 3.50129 65 4.74941V9.07053C65 10.3187 64.87 10.7713 64.626 11.2276C64.382 11.6839 64.0239 12.042 63.5676 12.286C63.1113 12.53 62.6587 12.66 61.4106 12.66H46.5894C45.3413 12.66 44.8887 12.53 44.4324 12.286C43.9761 12.042 43.618 11.6839 43.374 11.2276C43.13 10.7713 43 10.3187 43 9.07053V4.74941C43 3.50129 43.13 3.04869 43.374 2.59239C43.618 2.13609 43.9761 1.77799 44.4324 1.53396C44.8887 1.28993 45.3413 1.15997 46.5894 1.15997ZM46.5894 2.15997C45.6025 2.15997 45.2579 2.22651 44.904 2.41577C44.622 2.5666 44.4066 2.78196 44.2558 3.06399C44.0665 3.41788 44 3.76243 44 4.74941V9.07053C44 10.0575 44.0665 10.4021 44.2558 10.756C44.4066 11.038 44.622 11.2533 44.904 11.4042C45.2579 11.5934 45.6025 11.66 46.5894 11.66H61.4106C62.3975 11.66 62.7421 11.5934 63.096 11.4042C63.378 11.2533 63.5934 11.038 63.7442 10.756C63.9335 10.4021 64 10.0575 64 9.07053V4.74941C64 3.76243 63.9335 3.41788 63.7442 3.06399C63.5934 2.78196 63.378 2.5666 63.096 2.41577C62.7421 2.22651 62.3975 2.15997 61.4106 2.15997H46.5894ZM67.5 6.84998C67.5 8.08655 66 8.84998 66 8.84998V4.84998C66 4.84998 67.5 5.6134 67.5 6.84998Z" fill="#121212"/>
<rect x="45" y="3.07666" width="18" height="7.66667" rx="1.6" fill="#121212"/>
<path fill-rule="evenodd" clip-rule="evenodd" d="M14.623 2.56587C14.6 2.68179 14.6 2.82118 14.6 3.09997V10.8C14.6 11.0788 14.6 11.2182 14.623 11.3341C14.7177 11.8101 15.0899 12.1822 15.5659 12.2769C15.6818 12.3 15.8212 12.3 16.1 12.3C16.3788 12.3 16.5182 12.3 16.6341 12.2769C17.1101 12.1822 17.4822 11.8101 17.5769 11.3341C17.6 11.2182 17.6 11.0788 17.6 10.8V3.09998C17.6 2.82118 17.6 2.68179 17.5769 2.56587C17.4822 2.08984 17.1101 1.71772 16.6341 1.62303C16.5182 1.59998 16.3788 1.59998 16.1 1.59998C15.8212 1.59998 15.6818 1.59998 15.5659 1.62303C15.0899 1.71772 14.7177 2.08984 14.623 2.56587ZM9.89999 5.49998C9.89999 5.22118 9.89999 5.08179 9.92305 4.96587C10.0177 4.48984 10.3899 4.11772 10.8659 4.02303C10.9818 3.99998 11.1212 3.99998 11.4 3.99998C11.6788 3.99998 11.8182 3.99998 11.9341 4.02303C12.4101 4.11772 12.7822 4.48984 12.8769 4.96587C12.9 5.08179 12.9 5.22118 12.9 5.49998V10.8C12.9 11.0788 12.9 11.2182 12.8769 11.3341C12.7822 11.8101 12.4101 12.1822 11.9341 12.2769C11.8182 12.3 11.6788 12.3 11.4 12.3C11.1212 12.3 10.9818 12.3 10.8659 12.2769C10.3899 12.1822 10.0177 11.8101 9.92305 11.3341C9.89999 11.2182 9.89999 11.0788 9.89999 10.8V5.49998ZM5.32305 7.26587C5.29999 7.38179 5.29999 7.52119 5.29999 7.79998V10.8C5.29999 11.0788 5.29999 11.2182 5.32305 11.3341C5.41773 11.8101 5.78985 12.1822 6.26588 12.2769C6.3818 12.3 6.52119 12.3 6.79999 12.3C7.07878 12.3 7.21818 12.3 7.3341 12.2769C7.81012 12.1822 8.18224 11.8101 8.27693 11.3341C8.29999 11.2182 8.29999 11.0788 8.29999 10.8V7.79998C8.29999 7.52119 8.29999 7.38179 8.27693 7.26587C8.18224 6.78984 7.81012 6.41773 7.3341 6.32304C7.21818 6.29998 7.07878 6.29998 6.79999 6.29998C6.52119 6.29998 6.3818 6.29998 6.26588 6.32304C5.78985 6.41773 5.41773 6.78984 5.32305 7.26587ZM0.523058 9.26587C0.5 9.38179 0.5 9.52119 0.5 9.79998V10.8C0.5 11.0788 0.5 11.2182 0.523058 11.3341C0.617746 11.8101 0.989863 12.1822 1.46589 12.2769C1.58181 12.3 1.72121 12.3 2 12.3C2.27879 12.3 2.41819 12.3 2.53411 12.2769C3.01014 12.1822 3.38225 11.8101 3.47694 11.3341C3.5 11.2182 3.5 11.0788 3.5 10.8V9.79998C3.5 9.52119 3.5 9.38179 3.47694 9.26587C3.38225 8.78984 3.01014 8.41773 2.53411 8.32304C2.41819 8.29998 2.27879 8.29998 2 8.29998C1.72121 8.29998 1.58181 8.29998 1.46589 8.32304C0.989863 8.41773 0.617746 8.78984 0.523058 9.26587Z" fill="#121212"/>
<path fill-rule="evenodd" clip-rule="evenodd" d="M30.3004 3.69632C32.5348 3.69642 34.6838 4.55497 36.3031 6.09453C36.4251 6.21339 36.62 6.21189 36.7401 6.09117L37.9058 4.91476C37.9666 4.85353 38.0005 4.77059 38 4.68429C37.9995 4.598 37.9646 4.51546 37.9031 4.45494C33.6527 0.381636 26.9474 0.381636 22.697 4.45494C22.6355 4.51541 22.6005 4.59793 22.6 4.68422C22.5994 4.77052 22.6333 4.85348 22.694 4.91476L23.86 6.09117C23.98 6.21207 24.1751 6.21358 24.297 6.09453C25.9165 4.55487 28.0658 3.69632 30.3004 3.69632V3.69632ZM30.3004 7.52371C31.5281 7.52363 32.7119 7.97995 33.6219 8.80399C33.745 8.92094 33.9389 8.9184 34.0589 8.79827L35.2232 7.62186C35.2845 7.56015 35.3185 7.47644 35.3177 7.38945C35.3168 7.30247 35.281 7.21947 35.2185 7.15902C32.4473 4.58128 28.1558 4.58128 25.3847 7.15902C25.3221 7.21947 25.2863 7.30251 25.2855 7.38952C25.2847 7.47654 25.3188 7.56024 25.3803 7.62186L26.5443 8.79827C26.6642 8.9184 26.8581 8.92094 26.9812 8.80399C27.8906 7.98049 29.0735 7.52422 30.3004 7.52371V7.52371ZM32.5379 10.3313C32.6002 10.2702 32.6345 10.1861 32.6327 10.0989C32.6309 10.0116 32.5932 9.92901 32.5285 9.87049C31.2423 8.78259 29.3585 8.78259 28.0723 9.87049C28.0075 9.92896 27.9697 10.0116 27.9679 10.0988C27.9661 10.186 28.0003 10.2702 28.0625 10.3313L30.0769 12.3638C30.1359 12.4236 30.2164 12.4572 30.3004 12.4572C30.3844 12.4572 30.4649 12.4236 30.5239 12.3638L32.5379 10.3313Z" fill="#121212"/>
</svg>
