<svg width="24" height="24" viewBox="0 0 24 24" fill="none" xmlns="http://www.w3.org/2000/svg">
<path d="M14 12C14 12.55 13.8083 13.025 13.425 13.425C13.0417 13.8083 12.5667 14 12 14C11.45 14 10.975 13.8083 10.575 13.425C10.1917 13.025 10 12.55 10 12C10 11.4333 10.1917 10.9583 10.575 10.575C10.975 10.1917 11.45 10 12 10C12.5667 10 13.0417 10.1917 13.425 10.575C13.8083 10.9583 14 11.4333 14 12ZM7 12C7 12.55 6.80833 13.025 6.425 13.425C6.04167 13.8083 5.56667 14 5 14C4.45 14 3.975 13.8083 3.575 13.425C3.19167 13.025 3 12.55 3 12C3 11.4333 3.19167 10.9583 3.575 10.575C3.975 10.1917 4.45 10 5 10C5.56667 10 6.04167 10.1917 6.425 10.575C6.80833 10.9583 7 11.4333 7 12ZM21 12C21 12.55 20.8083 13.025 20.425 13.425C20.0417 13.8083 19.5667 14 19 14C18.45 14 17.975 13.8083 17.575 13.425C17.1917 13.025 17 12.55 17 12C17 11.4333 17.1917 10.9583 17.575 10.575C17.975 10.1917 18.45 10 19 10C19.5667 10 20.0417 10.1917 20.425 10.575C20.8083 10.9583 21 11.4333 21 12Z" fill="#181A1B"/>
</svg>
