<svg width="24" height="24" viewBox="0 0 24 24" fill="none" xmlns="http://www.w3.org/2000/svg">
<path d="M8.725 21C8.59167 20.9 8.46667 20.825 8.35 20.775C8.25 20.725 8.10833 20.6917 7.925 20.675L6.6 20.575C5.71667 20.5083 4.975 20.1417 4.375 19.475C3.79167 18.8083 3.45833 17.9917 3.375 17.025L3.3 16.075C3.28333 15.8917 3.25 15.7417 3.2 15.625C3.16667 15.5083 3.1 15.3833 3 15.25L2.125 14.25C1.54167 13.5833 1.275 12.8083 1.325 11.925C1.375 11.0417 1.725 10.2167 2.375 9.45L3 8.725C3.1 8.59167 3.175 8.46667 3.225 8.35C3.275 8.23333 3.30833 8.09167 3.325 7.925L3.425 6.6C3.49167 5.7 3.85 4.95833 4.5 4.375C5.16667 3.79167 5.99167 3.45833 6.975 3.375L7.925 3.3C8.10833 3.28333 8.25833 3.25 8.375 3.2C8.49167 3.15 8.60833 3.075 8.725 2.975L9.725 2.125C10.4083 1.54167 11.175 1.25 12.025 1.25C12.875 1.25 13.6333 1.53333 14.3 2.1L15.3 2.95C15.4167 3.06667 15.5333 3.15 15.65 3.2C15.7667 3.25 15.9167 3.28333 16.1 3.3L17.4 3.4C18.2833 3.46667 19.0167 3.83333 19.6 4.5C20.2 5.16667 20.5417 5.99167 20.625 6.975L20.7 7.9C20.7167 8.1 20.7417 8.25833 20.775 8.375C20.825 8.475 20.9167 8.58333 21.05 8.7L21.9 9.7C22.4667 10.3833 22.725 11.175 22.675 12.075C22.625 12.975 22.2917 13.7917 21.675 14.525L21.05 15.275C20.9167 15.425 20.825 15.5583 20.775 15.675C20.725 15.775 20.7 15.9083 20.7 16.075L20.6 17.4C20.5333 18.2833 20.1667 19.025 19.5 19.625C18.8333 20.2083 18.0083 20.5417 17.025 20.625L16.1 20.7C15.9167 20.7167 15.7667 20.75 15.65 20.8C15.5333 20.8333 15.4167 20.9083 15.3 21.025L14.3 21.875C13.6 22.4583 12.8 22.725 11.9 22.675C11.0167 22.625 10.2 22.275 9.45 21.625L8.725 21ZM13.975 19.5C14.2417 19.2667 14.5417 19.0833 14.875 18.95C15.2083 18.8167 15.5667 18.7333 15.95 18.7L16.875 18.625C17.4417 18.575 17.8583 18.4417 18.125 18.225C18.4083 18.0083 18.5667 17.6833 18.6 17.25L18.7 15.95C18.7333 15.6 18.8167 15.2583 18.95 14.925C19.0833 14.575 19.2667 14.25 19.5 13.95L20.15 13.25C20.5 12.8167 20.6917 12.4167 20.725 12.05C20.775 11.6833 20.6583 11.3417 20.375 11.025L19.5 10.025C19.2667 9.75833 19.0833 9.45833 18.95 9.125C18.8167 8.79167 18.7333 8.43333 18.7 8.05L18.625 7.125C18.5917 6.55833 18.4583 6.14167 18.225 5.875C18.0083 5.59167 17.6833 5.43333 17.25 5.4L15.95 5.3C15.5667 5.26667 15.2 5.18333 14.85 5.05C14.5167 4.9 14.225 4.70833 13.975 4.475L12.975 3.625C12.6417 3.34167 12.325 3.2 12.025 3.2C11.725 3.2 11.4083 3.34167 11.075 3.625L10.025 4.525C9.75833 4.74167 9.45833 4.91667 9.125 5.05C8.80833 5.18333 8.45833 5.26667 8.075 5.3L7.125 5.375C6.55833 5.40833 6.14167 5.54167 5.875 5.775C5.60833 5.99167 5.45833 6.31667 5.425 6.75L5.325 8.075C5.29167 8.425 5.2 8.775 5.05 9.125C4.91667 9.45833 4.74167 9.75 4.525 10L3.9 10.725C3.51667 11.175 3.30833 11.575 3.275 11.925C3.24167 12.275 3.36667 12.6083 3.65 12.925L4.525 14C4.74167 14.25 4.91667 14.55 5.05 14.9C5.18333 15.2333 5.26667 15.575 5.3 15.925L5.375 16.875C5.425 17.425 5.55833 17.8417 5.775 18.125C5.99167 18.3917 6.31667 18.5417 6.75 18.575L8.075 18.675C8.44167 18.7083 8.79167 18.7917 9.125 18.925C9.45833 19.0583 9.75833 19.2417 10.025 19.475L10.775 20.1C11.1917 20.4833 11.575 20.6917 11.925 20.725C12.2917 20.7583 12.6417 20.6333 12.975 20.35L13.975 19.5ZM8 15C7.58333 15 7.29167 14.8333 7.125 14.5C6.975 14.1667 6.975 13.8333 7.125 13.5C7.29167 13.1667 7.58333 13 8 13H12C12.4167 13 12.7 13.1667 12.85 13.5C13.0167 13.8333 13.0167 14.1667 12.85 14.5C12.7 14.8333 12.4167 15 12 15H8ZM8 11C7.58333 11 7.29167 10.8333 7.125 10.5C6.975 10.1667 6.975 9.83333 7.125 9.5C7.29167 9.16667 7.58333 9 8 9H16C16.4167 9 16.7 9.16667 16.85 9.5C17.0167 9.83333 17.0167 10.1667 16.85 10.5C16.7 10.8333 16.4167 11 16 11H8Z" fill="#181A1B"/>
</svg>
