<svg width="486" height="413" viewBox="0 0 486 413" fill="none" xmlns="http://www.w3.org/2000/svg">
<g opacity="0.25" filter="url(#filter0_f_1_479)">
<path d="M68.7189 228.896C73.3547 224.476 80.6453 224.476 85.2811 228.896L94.0041 237.214C96.4271 239.525 99.7053 240.718 103.047 240.505L115.075 239.741C121.468 239.334 127.053 244.02 127.763 250.387L129.098 262.365C129.469 265.693 131.214 268.714 133.91 270.699L143.616 277.845C148.774 281.643 150.04 288.823 146.492 294.156L139.815 304.19C137.961 306.978 137.355 310.413 138.144 313.667L140.986 325.38C142.496 331.605 138.851 337.919 132.705 339.723L121.14 343.119C117.928 344.062 115.255 346.304 113.769 349.304L108.417 360.104C105.572 365.843 98.7213 368.337 92.8531 365.768L81.8114 360.936C78.7442 359.593 75.2557 359.593 72.1886 360.936L61.1469 365.768C55.2787 368.337 48.4279 365.843 45.5835 360.104L40.2314 349.304C38.7447 346.304 36.0723 344.062 32.8599 343.119L21.2951 339.723C15.1489 337.919 11.5036 331.605 13.014 325.38L15.8558 313.667C16.6452 310.413 16.0394 306.978 14.1848 304.19L7.50824 294.156C3.9599 288.823 5.22589 281.643 10.3842 277.845L20.0903 270.699C22.7864 268.714 24.5307 265.693 24.9017 262.365L26.2373 250.387C26.9472 244.02 32.5321 239.334 38.9248 239.741L50.9534 240.505C54.2948 240.718 57.5729 239.525 59.9959 237.214L68.7189 228.896Z" fill="#FF7F7F"/>
</g>
<g opacity="0.25" filter="url(#filter1_f_1_479)">
<path d="M68.7189 250.896C73.3547 246.476 80.6453 246.476 85.2811 250.896L88.0598 253.546C90.4828 255.856 93.7609 257.05 97.1023 256.837L100.934 256.594C107.327 256.187 112.911 260.873 113.621 267.24L114.047 271.055C114.418 274.383 116.162 277.404 118.858 279.389L121.95 281.665C127.108 285.463 128.374 292.643 124.826 297.976L122.699 301.172C120.845 303.96 120.239 307.395 121.028 310.649L121.933 314.38C123.444 320.605 119.799 326.919 113.652 328.723L109.968 329.805C106.756 330.748 104.084 332.991 102.597 335.991L100.892 339.431C98.0477 345.17 91.1969 347.664 85.3287 345.095L81.8114 343.556C78.7443 342.213 75.2557 342.213 72.1886 343.556L68.6713 345.095C62.8031 347.664 55.9523 345.17 53.1079 339.431L51.403 335.99C49.9163 332.991 47.244 330.748 44.0315 329.805L40.3477 328.723C34.2015 326.919 30.5562 320.605 32.0665 314.38L32.9718 310.649C33.7612 307.395 33.1554 303.96 31.3008 301.172L29.174 297.976C25.6257 292.643 26.8917 285.463 32.05 281.665L35.1418 279.389C37.8379 277.404 39.5822 274.383 39.9532 271.055L40.3787 267.24C41.0885 260.873 46.6734 256.187 53.0661 256.594L56.8977 256.837C60.2391 257.05 63.5172 255.856 65.9402 253.546L68.7189 250.896Z" fill="#FF7F7F"/>
</g>
<g opacity="0.25" filter="url(#filter2_f_1_479)">
<path d="M210.704 132.62C212.829 130.594 216.171 130.594 218.296 132.62C219.407 133.679 220.91 134.226 222.442 134.129C225.373 133.943 227.933 136.091 228.258 139.01C228.429 140.535 229.228 141.92 230.464 142.83C232.829 144.571 233.409 147.863 231.783 150.308C230.932 151.586 230.655 153.161 231.017 154.652C231.709 157.506 230.038 160.401 227.22 161.228C225.747 161.66 224.522 162.688 223.841 164.063C222.537 166.695 219.396 167.838 216.706 166.66C215.3 166.045 213.7 166.045 212.294 166.66C209.604 167.838 206.463 166.695 205.159 164.063C204.478 162.688 203.253 161.66 201.78 161.228C198.962 160.401 197.291 157.506 197.983 154.652C198.345 153.161 198.068 151.586 197.217 150.308C195.591 147.863 196.171 144.571 198.536 142.83C199.772 141.92 200.571 140.535 200.742 139.01C201.067 136.091 203.627 133.943 206.558 134.129C208.09 134.226 209.593 133.679 210.704 132.62Z" fill="#FF7F7F"/>
</g>
<g opacity="0.15" filter="url(#filter3_f_1_479)">
<path d="M107.219 84.8964C111.855 80.4759 119.145 80.4759 123.781 84.8964L124.263 85.356C126.686 87.6664 129.964 88.8596 133.306 88.6472L133.97 88.6049C140.363 88.1985 145.948 92.8848 146.658 99.2509L146.731 99.9128C147.102 103.24 148.847 106.261 151.543 108.246L152.079 108.641C157.237 112.439 158.503 119.619 154.955 124.952L154.586 125.506C152.732 128.294 152.126 131.729 152.915 134.983L153.072 135.63C154.583 141.855 150.937 148.169 144.791 149.973L144.152 150.161C140.94 151.104 138.267 153.347 136.781 156.347L136.485 156.943C133.641 162.683 126.79 165.176 120.921 162.608L120.311 162.341C117.244 160.998 113.756 160.998 110.689 162.341L110.079 162.608C104.21 165.176 97.3595 162.683 94.5151 156.943L94.2194 156.347C92.7327 153.347 90.0603 151.104 86.8478 150.161L86.2089 149.973C80.0627 148.169 76.4174 141.855 77.9277 135.63L78.0848 134.983C78.8742 131.729 78.2684 128.294 76.4138 125.506L76.0449 124.952C72.4965 119.619 73.7625 112.439 78.9209 108.641L79.4572 108.246C82.1533 106.261 83.8976 103.24 84.2686 99.9128L84.3424 99.2509C85.0522 92.8848 90.6371 88.1985 97.0298 88.6049L97.6944 88.6472C101.036 88.8596 104.314 87.6664 106.737 85.356L107.219 84.8964Z" fill="#FF7F7F"/>
</g>
<g opacity="0.15" filter="url(#filter4_f_1_479)">
<path d="M168.592 219.296C169.94 218.011 172.06 218.011 173.408 219.296C174.112 219.967 175.065 220.314 176.036 220.252C177.895 220.134 179.519 221.497 179.725 223.348C179.833 224.315 180.34 225.193 181.124 225.77C182.623 226.874 182.991 228.962 181.96 230.512C181.421 231.323 181.244 232.321 181.474 233.267C181.913 235.077 180.853 236.913 179.066 237.437C178.133 237.711 177.356 238.363 176.923 239.235C176.096 240.904 174.105 241.629 172.399 240.882C171.507 240.492 170.493 240.492 169.601 240.882C167.895 241.629 165.904 240.904 165.077 239.235C164.644 238.363 163.867 237.711 162.934 237.437C161.147 236.913 160.087 235.077 160.526 233.267C160.756 232.321 160.579 231.323 160.04 230.512C159.009 228.962 159.377 226.874 160.876 225.77C161.66 225.193 162.167 224.315 162.275 223.348C162.481 221.497 164.105 220.134 165.964 220.252C166.935 220.314 167.888 219.967 168.592 219.296Z" fill="#FF7F7F"/>
</g>
<g opacity="0.15" filter="url(#filter5_f_1_479)">
<path d="M400.148 279.766C401.185 278.777 402.815 278.777 403.852 279.766C404.394 280.283 405.127 280.549 405.874 280.502C407.304 280.411 408.553 281.459 408.711 282.883C408.794 283.627 409.184 284.302 409.787 284.746C410.941 285.596 411.224 287.201 410.431 288.394C410.016 289.017 409.88 289.786 410.057 290.513C410.395 291.905 409.579 293.317 408.205 293.721C407.487 293.932 406.889 294.433 406.556 295.104C405.92 296.388 404.388 296.945 403.076 296.371C402.39 296.071 401.61 296.071 400.924 296.371C399.612 296.945 398.08 296.388 397.444 295.104C397.111 294.433 396.513 293.932 395.795 293.721C394.421 293.317 393.605 291.905 393.943 290.513C394.12 289.786 393.984 289.017 393.569 288.394C392.776 287.201 393.059 285.596 394.213 284.746C394.816 284.302 395.206 283.627 395.289 282.883C395.447 281.459 396.696 280.411 398.126 280.502C398.873 280.549 399.606 280.283 400.148 279.766Z" fill="#FF7F7F"/>
</g>
<g opacity="0.25" filter="url(#filter6_f_1_479)">
<path d="M273.259 296.858C277.872 292.459 285.128 292.459 289.741 296.858C292.152 299.158 295.415 300.345 298.74 300.133C305.102 299.729 310.66 304.393 311.366 310.728C311.735 314.039 313.471 317.046 316.154 319.021C321.287 322.801 322.547 329.946 319.016 335.253C317.171 338.027 316.568 341.446 317.353 344.684C318.856 350.879 315.229 357.162 309.112 358.958C305.915 359.897 303.256 362.128 301.776 365.113C298.946 370.825 292.128 373.307 286.288 370.751C283.236 369.415 279.764 369.415 276.712 370.751C270.872 373.307 264.054 370.825 261.224 365.113C259.744 362.128 257.085 359.897 253.888 358.958C247.771 357.162 244.144 350.879 245.647 344.684C246.432 341.446 245.829 338.027 243.984 335.253C240.453 329.946 241.713 322.801 246.846 319.021C249.529 317.046 251.265 314.039 251.634 310.728C252.34 304.393 257.898 299.729 264.26 300.133C267.585 300.345 270.848 299.158 273.259 296.858Z" fill="#FF7F7F"/>
</g>
<g opacity="0.3" filter="url(#filter7_f_1_479)">
<path d="M362.719 8.89641C367.355 4.4759 374.645 4.47591 379.281 8.89641L396.38 25.201C398.803 27.5115 402.081 28.7046 405.423 28.4922L429.002 26.9932C435.394 26.5868 440.979 31.273 441.689 37.6392L444.307 61.1203C444.678 64.4477 446.423 67.4689 449.119 69.4539L468.145 83.4619C473.303 87.2597 474.569 94.4395 471.021 99.7725L457.933 119.443C456.079 122.23 455.473 125.666 456.262 128.92L461.833 151.88C463.343 158.105 459.698 164.419 453.552 166.223L430.882 172.879C427.67 173.823 424.997 176.065 423.51 179.065L413.019 200.234C410.175 205.974 403.324 208.467 397.456 205.899L375.811 196.426C372.744 195.083 369.256 195.083 366.189 196.426L344.544 205.899C338.676 208.467 331.825 205.974 328.981 200.234L318.49 179.065C317.003 176.065 314.33 173.823 311.118 172.879L288.448 166.223C282.302 164.419 278.657 158.105 280.167 151.88L285.738 128.92C286.527 125.666 285.922 122.23 284.067 119.443L270.979 99.7725C267.431 94.4395 268.697 87.2597 273.855 83.4619L292.881 69.4539C295.577 67.4689 297.322 64.4477 297.693 61.1203L300.311 37.6392C301.021 31.273 306.606 26.5868 312.998 26.9932L336.577 28.4922C339.919 28.7046 343.197 27.5115 345.62 25.201L362.719 8.89641Z" fill="#FF7F7F"/>
</g>
<g opacity="0.3" filter="url(#filter8_f_1_479)">
<path d="M362.219 44.8964C366.855 40.4759 374.145 40.4759 378.781 44.8964L386.288 52.0547C388.711 54.3652 391.989 55.5583 395.331 55.3459L405.683 54.6878C412.075 54.2813 417.66 58.9676 418.37 65.3338L419.52 75.6428C419.891 78.9702 421.635 81.9914 424.331 83.9764L432.684 90.1264C437.842 93.9242 439.108 101.104 435.56 106.437L429.814 115.073C427.96 117.861 427.354 121.296 428.143 124.55L430.589 134.63C432.099 140.855 428.454 147.169 422.308 148.973L412.355 151.896C409.143 152.839 406.47 155.081 404.983 158.081L400.377 167.375C397.533 173.115 390.682 175.608 384.814 173.04L375.311 168.881C372.244 167.538 368.756 167.538 365.689 168.881L356.186 173.04C350.318 175.608 343.467 173.115 340.623 167.375L336.016 158.081C334.53 155.081 331.857 152.839 328.645 151.896L318.692 148.973C312.546 147.169 308.901 140.855 310.411 134.63L312.857 124.55C313.646 121.296 313.04 117.861 311.186 115.073L305.44 106.437C301.892 101.104 303.158 93.9242 308.316 90.1264L316.669 83.9764C319.365 81.9914 321.109 78.9702 321.48 75.6428L322.63 65.3338C323.34 58.9676 328.925 54.2813 335.317 54.6878L345.669 55.3459C349.011 55.5583 352.289 54.3652 354.712 52.0547L362.219 44.8964Z" fill="#FF7F7F"/>
</g>
<defs>
<filter id="filter0_f_1_479" x="0.498047" y="220.581" width="153.004" height="151.197" filterUnits="userSpaceOnUse" color-interpolation-filters="sRGB">
<feFlood flood-opacity="0" result="BackgroundImageFix"/>
<feBlend mode="normal" in="SourceGraphic" in2="BackgroundImageFix" result="shape"/>
<feGaussianBlur stdDeviation="2.5" result="effect1_foregroundBlur_1_479"/>
</filter>
<filter id="filter1_f_1_479" x="22.1638" y="242.581" width="109.672" height="108.523" filterUnits="userSpaceOnUse" color-interpolation-filters="sRGB">
<feFlood flood-opacity="0" result="BackgroundImageFix"/>
<feBlend mode="normal" in="SourceGraphic" in2="BackgroundImageFix" result="shape"/>
<feGaussianBlur stdDeviation="2.5" result="effect1_foregroundBlur_1_479"/>
</filter>
<filter id="filter2_f_1_479" x="191.296" y="126.1" width="46.4087" height="46.0229" filterUnits="userSpaceOnUse" color-interpolation-filters="sRGB">
<feFlood flood-opacity="0" result="BackgroundImageFix"/>
<feBlend mode="normal" in="SourceGraphic" in2="BackgroundImageFix" result="shape"/>
<feGaussianBlur stdDeviation="2.5" result="effect1_foregroundBlur_1_479"/>
</filter>
<filter id="filter3_f_1_479" x="69.0347" y="76.5811" width="92.9307" height="92.0361" filterUnits="userSpaceOnUse" color-interpolation-filters="sRGB">
<feFlood flood-opacity="0" result="BackgroundImageFix"/>
<feBlend mode="normal" in="SourceGraphic" in2="BackgroundImageFix" result="shape"/>
<feGaussianBlur stdDeviation="2.5" result="effect1_foregroundBlur_1_479"/>
</filter>
<filter id="filter4_f_1_479" x="154.456" y="213.332" width="33.0884" height="32.8438" filterUnits="userSpaceOnUse" color-interpolation-filters="sRGB">
<feFlood flood-opacity="0" result="BackgroundImageFix"/>
<feBlend mode="normal" in="SourceGraphic" in2="BackgroundImageFix" result="shape"/>
<feGaussianBlur stdDeviation="2.5" result="effect1_foregroundBlur_1_479"/>
</filter>
<filter id="filter5_f_1_479" x="388.12" y="274.024" width="27.7603" height="27.5723" filterUnits="userSpaceOnUse" color-interpolation-filters="sRGB">
<feFlood flood-opacity="0" result="BackgroundImageFix"/>
<feBlend mode="normal" in="SourceGraphic" in2="BackgroundImageFix" result="shape"/>
<feGaussianBlur stdDeviation="2.5" result="effect1_foregroundBlur_1_479"/>
</filter>
<filter id="filter6_f_1_479" x="236.983" y="288.559" width="89.0332" height="88.196" filterUnits="userSpaceOnUse" color-interpolation-filters="sRGB">
<feFlood flood-opacity="0" result="BackgroundImageFix"/>
<feBlend mode="normal" in="SourceGraphic" in2="BackgroundImageFix" result="shape"/>
<feGaussianBlur stdDeviation="2.5" result="effect1_foregroundBlur_1_479"/>
</filter>
<filter id="filter7_f_1_479" x="263.969" y="0.581055" width="214.062" height="211.327" filterUnits="userSpaceOnUse" color-interpolation-filters="sRGB">
<feFlood flood-opacity="0" result="BackgroundImageFix"/>
<feBlend mode="normal" in="SourceGraphic" in2="BackgroundImageFix" result="shape"/>
<feGaussianBlur stdDeviation="2.5" result="effect1_foregroundBlur_1_479"/>
</filter>
<filter id="filter8_f_1_479" x="298.43" y="36.5811" width="144.141" height="142.468" filterUnits="userSpaceOnUse" color-interpolation-filters="sRGB">
<feFlood flood-opacity="0" result="BackgroundImageFix"/>
<feBlend mode="normal" in="SourceGraphic" in2="BackgroundImageFix" result="shape"/>
<feGaussianBlur stdDeviation="2.5" result="effect1_foregroundBlur_1_479"/>
</filter>
</defs>
</svg>
