<svg width="16" height="16" viewBox="0 0 16 16" fill="none" xmlns="http://www.w3.org/2000/svg">
<g id="Pin">
<path id="Rectangle 1" d="M9.75716 2.60633C10.1925 2.31608 10.4102 2.17096 10.6474 2.19444C10.8846 2.21793 11.0696 2.40292 11.4396 2.77292L13.2271 4.56042C13.5971 4.93041 13.7821 5.11541 13.8055 5.35259C13.829 5.58977 13.6839 5.80745 13.3937 6.24282L12.2945 7.89148C11.92 8.45331 11.7327 8.73423 11.5832 9.03406C11.4724 9.25635 11.3772 9.48611 11.2984 9.72167C11.1921 10.0394 11.1259 10.3704 10.9935 11.0326L10.8661 11.6692C10.8657 11.6715 10.8655 11.6726 10.8653 11.6734C10.7704 12.142 10.2276 12.3612 9.83382 12.0901C9.83313 12.0896 9.83219 12.089 9.83031 12.0877V12.0877C9.82143 12.0815 9.817 12.0784 9.81259 12.0754C7.51276 10.4816 5.51834 8.48722 3.92458 6.18739C3.92153 6.18298 3.91846 6.17855 3.91232 6.16967V6.16967C3.91102 6.16779 3.91036 6.16685 3.90989 6.16616C3.63874 5.77239 3.858 5.22963 4.32658 5.13468C4.3274 5.13452 4.32852 5.13429 4.33077 5.13384L4.96741 5.00651C5.62953 4.87409 5.96059 4.80788 6.27831 4.70158C6.51387 4.62277 6.74363 4.52759 6.96592 4.41676C7.26575 4.26726 7.54667 4.07999 8.1085 3.70543L9.75716 2.60633Z" stroke="#888E94" stroke-width="1.33333"/>
<path id="Vector 63" d="M3.33331 12.6667L6.33331 9.66669" stroke="#888E94" stroke-width="1.33333" stroke-linecap="round"/>
</g>
</svg>
