<svg width="24" height="24" viewBox="0 0 24 24" fill="none" xmlns="http://www.w3.org/2000/svg">
<path d="M4 13C3.58333 13 3.29167 12.8333 3.125 12.5C2.975 12.1667 2.975 11.8333 3.125 11.5C3.29167 11.1667 3.58333 11 4 11H20C20.4167 11 20.7 11.1667 20.85 11.5C21.0167 11.8333 21.0167 12.1667 20.85 12.5C20.7 12.8333 20.4167 13 20 13H4ZM11 4C11 3.58333 11.1667 3.3 11.5 3.15C11.8333 2.98333 12.1667 2.98333 12.5 3.15C12.8333 3.3 13 3.58333 13 4V20C13 20.4167 12.8333 20.7083 12.5 20.875C12.1667 21.025 11.8333 21.025 11.5 20.875C11.1667 20.7083 11 20.4167 11 20V4Z" fill="#A3A8AE"/>
</svg>
