<svg viewBox="0 0 36 36" xmlns="http://www.w3.org/2000/svg">
<rect width="36" height="36" rx="18" fill="currentColor"/>
<path d="M13.0285 25.7999C12.0285 25.7999 11.2418 25.5199 10.6685 24.9599C10.1085 24.3866 9.82852 23.5999 9.82852 22.5999V22.5199C9.82852 21.7332 10.1952 21.0466 10.9285 20.4599C11.6618 19.8599 12.6352 19.3999 13.8485 19.0799C15.0619 18.7599 16.3885 18.5999 17.8285 18.5999C19.2685 18.5999 20.5952 18.7599 21.8085 19.0799C23.0219 19.3999 23.9952 19.8599 24.7285 20.4599C25.4619 21.0466 25.8285 21.7332 25.8285 22.5199V22.5999C25.8285 23.5999 25.5419 24.3866 24.9685 24.9599C24.4085 25.5199 23.6285 25.7999 22.6285 25.7999H13.0285ZM11.4285 22.5999C11.4285 23.2132 11.5418 23.6332 11.7685 23.8599C11.9952 24.0866 12.4152 24.1999 13.0285 24.1999H22.6285C23.2419 24.1999 23.6619 24.0866 23.8885 23.8599C24.1152 23.6332 24.2285 23.2132 24.2285 22.5999V22.5199C24.2285 22.1066 23.9552 21.7199 23.4085 21.3599C22.8619 20.9999 22.1019 20.7199 21.1285 20.5199C20.1685 20.3066 19.0685 20.1999 17.8285 20.1999C16.6019 20.1999 15.5019 20.3066 14.5285 20.5199C13.5552 20.7199 12.7952 20.9999 12.2485 21.3599C11.7018 21.7199 11.4285 22.1066 11.4285 22.5199V22.5999ZM17.8285 17.7999C17.0952 17.7999 16.4219 17.6199 15.8085 17.2599C15.2085 16.8999 14.7285 16.4199 14.3685 15.8199C14.0085 15.2066 13.8285 14.5332 13.8285 13.7999C13.8285 13.0666 14.0085 12.3932 14.3685 11.7799C14.7285 11.1666 15.2085 10.6866 15.8085 10.3399C16.4219 9.9799 17.0952 9.7999 17.8285 9.7999C18.5619 9.7999 19.2352 9.9799 19.8485 10.3399C20.4619 10.6866 20.9419 11.1666 21.2885 11.7799C21.6485 12.3932 21.8285 13.0666 21.8285 13.7999C21.8285 14.5332 21.6485 15.2066 21.2885 15.8199C20.9419 16.4199 20.4619 16.8999 19.8485 17.2599C19.2352 17.6199 18.5619 17.7999 17.8285 17.7999ZM17.8285 16.1999C18.3085 16.1999 18.7285 16.0999 19.0885 15.8999C19.4485 15.6999 19.7285 15.4199 19.9285 15.0599C20.1285 14.6999 20.2285 14.2799 20.2285 13.7999C20.2285 13.3199 20.1285 12.8999 19.9285 12.5399C19.7285 12.1799 19.4485 11.8999 19.0885 11.6999C18.7285 11.4999 18.3085 11.3999 17.8285 11.3999C17.3485 11.3999 16.9285 11.4999 16.5685 11.6999C16.2085 11.8999 15.9285 12.1799 15.7285 12.5399C15.5285 12.8999 15.4285 13.3199 15.4285 13.7999C15.4285 14.2799 15.5285 14.6999 15.7285 15.0599C15.9285 15.4199 16.2085 15.6999 16.5685 15.8999C16.9285 16.0999 17.3485 16.1999 17.8285 16.1999Z" fill="white"/>
</svg>
