<svg width="24" height="24" viewBox="0 0 24 24" fill="none" xmlns="http://www.w3.org/2000/svg">
<path d="M9.2 12.2C8.91667 12.4833 8.59167 12.5667 8.225 12.45C7.875 12.3333 7.64167 12.1083 7.525 11.775C7.40833 11.425 7.5 11.1 7.8 10.8L11.275 7.3C11.475 7.08333 11.7167 6.975 12 6.975C12.2833 6.975 12.525 7.08333 12.725 7.3L16.2 10.8C16.4833 11.0833 16.5667 11.4083 16.45 11.775C16.3333 12.125 16.1 12.3583 15.75 12.475C15.4167 12.5917 15.1 12.5 14.8 12.2L12 9.425L9.2 12.2ZM11 8H13V16C13 16.4167 12.8333 16.7083 12.5 16.875C12.1667 17.025 11.8333 17.025 11.5 16.875C11.1667 16.7083 11 16.4167 11 16V8ZM12 22C10.2 22 8.53333 21.55 7 20.65C5.46667 19.75 4.25 18.5333 3.35 17C2.45 15.4667 2 13.8 2 12C2 10.2 2.45 8.53333 3.35 7C4.25 5.45 5.46667 4.23333 7 3.35C8.53333 2.45 10.2 2 12 2C13.8 2 15.4667 2.45 17 3.35C18.55 4.23333 19.7667 5.45 20.65 7C21.55 8.53333 22 10.2 22 12C22 13.8 21.55 15.4667 20.65 17C19.7667 18.5333 18.55 19.75 17 20.65C15.4667 21.55 13.8 22 12 22ZM12 20C13.4833 20 14.8333 19.65 16.05 18.95C17.2833 18.25 18.25 17.2917 18.95 16.075C19.65 14.8417 20 13.4833 20 12C20 10.5167 19.65 9.16667 18.95 7.95C18.25 6.71667 17.2833 5.75 16.05 5.05C14.8333 4.35 13.4833 4 12 4C10.5167 4 9.15833 4.35 7.925 5.05C6.70833 5.75 5.75 6.71667 5.05 7.95C4.35 9.16667 4 10.5167 4 12C4 13.4833 4.35 14.8417 5.05 16.075C5.75 17.2917 6.70833 18.25 7.925 18.95C9.15833 19.65 10.5167 20 12 20Z" fill="#FF7F7F"/>
</svg>
