<svg width="24" height="24" viewBox="0 0 24 24" fill="none" xmlns="http://www.w3.org/2000/svg">
<path d="M10.8 22C10.3333 22 9.90833 21.85 9.525 21.55C9.15833 21.25 8.93333 20.8833 8.85 20.45L8.575 19.125C8.55833 19.0583 8.56667 19.0417 8.6 19.075C8.65 19.1083 8.68333 19.15 8.7 19.2C8.71667 19.25 8.69167 19.2583 8.625 19.225C8.30833 19.1083 7.98333 18.9333 7.65 18.7L7.425 18.55C7.375 18.5167 7.36667 18.5 7.4 18.5C7.45 18.4833 7.5 18.4833 7.55 18.5C7.61667 18.5167 7.61667 18.5333 7.55 18.55L6.275 18.925C5.825 19.0583 5.38333 19.0417 4.95 18.875C4.51667 18.7083 4.18333 18.425 3.95 18.025L2.75 15.975C2.51667 15.5583 2.43333 15.1167 2.5 14.65C2.56667 14.1833 2.775 13.7917 3.125 13.475L4.1 12.6C4.13333 12.5667 4.15 12.575 4.15 12.625C4.15 12.6583 4.13333 12.6917 4.1 12.725C4.08333 12.7583 4.075 12.7583 4.075 12.725C4.025 12.5917 4 12.35 4 12C4 11.65 4.025 11.4083 4.075 11.275C4.075 11.225 4.08333 11.225 4.1 11.275C4.13333 11.3083 4.15 11.35 4.15 11.4C4.15 11.4333 4.13333 11.4333 4.1 11.4L3.125 10.5C2.775 10.2 2.56667 9.81667 2.5 9.35C2.43333 8.88333 2.51667 8.44167 2.75 8.025L3.95 5.975C4.18333 5.575 4.51667 5.29167 4.95 5.125C5.38333 4.94167 5.825 4.91667 6.275 5.05L7.55 5.45C7.61667 5.46667 7.61667 5.48333 7.55 5.5C7.5 5.5 7.45 5.5 7.4 5.5C7.36667 5.5 7.375 5.475 7.425 5.425L7.65 5.3C7.98333 5.06667 8.30833 4.88333 8.625 4.75C8.69167 4.73333 8.71667 4.75 8.7 4.8C8.68333 4.85 8.65 4.89167 8.6 4.925C8.56667 4.95833 8.55833 4.93333 8.575 4.85L8.85 3.55C8.93333 3.1 9.15833 2.73333 9.525 2.45C9.90833 2.15 10.3333 2 10.8 2H13.2C13.6667 2 14.0833 2.15 14.45 2.45C14.8333 2.73333 15.0667 3.1 15.15 3.55L15.4 4.775C15.4167 4.84167 15.4083 4.86667 15.375 4.85C15.3417 4.83333 15.3167 4.80833 15.3 4.775C15.3 4.74167 15.325 4.73333 15.375 4.75C15.7583 4.88333 16.15 5.10833 16.55 5.425C16.5833 5.45833 16.5833 5.48333 16.55 5.5C16.5167 5.5 16.4833 5.49167 16.45 5.475C16.4333 5.45833 16.4583 5.44167 16.525 5.425L17.725 5.05C18.175 4.91667 18.6167 4.94167 19.05 5.125C19.4833 5.29167 19.8167 5.575 20.05 5.975L21.25 8.025C21.5 8.44167 21.5833 8.88333 21.5 9.35C21.4333 9.8 21.225 10.1833 20.875 10.5L19.975 11.35C19.9083 11.4 19.8667 11.4083 19.85 11.375C19.85 11.325 19.8583 11.2833 19.875 11.25C19.9083 11.2167 19.9333 11.225 19.95 11.275C19.9833 11.4083 20 11.65 20 12C20 12.35 19.9833 12.5917 19.95 12.725C19.9333 12.775 19.9083 12.7833 19.875 12.75C19.8583 12.7167 19.85 12.6833 19.85 12.65C19.8667 12.6 19.9083 12.6 19.975 12.65L20.875 13.475C21.225 13.8083 21.4333 14.2083 21.5 14.675C21.5833 15.125 21.5 15.5583 21.25 15.975L20.05 18.025C19.8167 18.425 19.4833 18.7083 19.05 18.875C18.6167 19.0417 18.175 19.0583 17.725 18.925L16.525 18.575C16.4583 18.5583 16.4333 18.5417 16.45 18.525C16.4833 18.5083 16.5167 18.5083 16.55 18.525C16.5833 18.525 16.5833 18.5417 16.55 18.575C16.15 18.875 15.7583 19.0917 15.375 19.225C15.325 19.2583 15.3 19.2583 15.3 19.225C15.3167 19.1917 15.3417 19.1667 15.375 19.15C15.4083 19.1333 15.4167 19.1583 15.4 19.225L15.15 20.45C15.0667 20.8833 14.8333 21.25 14.45 21.55C14.0833 21.85 13.6667 22 13.2 22H10.8ZM13.9 20C14.0667 20 14.0667 20.0917 13.9 20.275C13.7333 20.4583 13.5417 20.6167 13.325 20.75C13.1083 20.8667 13.0167 20.8417 13.05 20.675L13.475 18.825C13.5417 18.4917 13.675 18.2083 13.875 17.975C14.075 17.725 14.3167 17.5333 14.6 17.4C14.75 17.3333 14.8833 17.2667 15 17.2C15.1333 17.1167 15.2583 17.0333 15.375 16.95C15.625 16.7667 15.9083 16.65 16.225 16.6C16.5417 16.55 16.8583 16.575 17.175 16.675L19 17.25C19.15 17.3 19.1167 17.3917 18.9 17.525C18.7 17.6417 18.4833 17.725 18.25 17.775C18.0167 17.825 17.9333 17.7833 18 17.65L19.85 14.35C19.9333 14.2167 20.0083 14.2667 20.075 14.5C20.1583 14.7333 20.2 14.975 20.2 15.225C20.2 15.475 20.1417 15.5417 20.025 15.425L18.65 14.15C18.4167 13.9167 18.2333 13.6583 18.1 13.375C17.9833 13.075 17.9417 12.7667 17.975 12.45C17.9917 12.35 18 12.2 18 12C18 11.8 17.9917 11.65 17.975 11.55C17.9417 11.2333 17.9833 10.9333 18.1 10.65C18.2333 10.35 18.4167 10.0833 18.65 9.85L20.025 8.575C20.1417 8.45833 20.2 8.525 20.2 8.775C20.2 9.025 20.1583 9.26667 20.075 9.5C20.0083 9.73333 19.9333 9.78333 19.85 9.65L18 6.35C17.9333 6.21667 18.0167 6.175 18.25 6.225C18.4833 6.25833 18.7 6.34167 18.9 6.475C19.1167 6.60833 19.15 6.69167 19 6.725L17.175 7.325C16.8583 7.425 16.5417 7.45 16.225 7.4C15.9083 7.33333 15.625 7.21667 15.375 7.05C15.2583 6.95 15.1333 6.86667 15 6.8C14.8833 6.73333 14.75 6.66667 14.6 6.6C14.3167 6.46667 14.075 6.275 13.875 6.025C13.675 5.775 13.5417 5.49167 13.475 5.175L13.05 3.325C13.0167 3.15833 13.1083 3.13333 13.325 3.25C13.5417 3.36667 13.7333 3.525 13.9 3.725C14.0667 3.90833 14.0667 4 13.9 4H10.1C9.93333 4 9.93333 3.90833 10.1 3.725C10.2833 3.525 10.475 3.36667 10.675 3.25C10.8917 3.13333 10.9833 3.15833 10.95 3.325L10.525 5.175C10.4583 5.49167 10.325 5.775 10.125 6.025C9.925 6.275 9.68333 6.46667 9.4 6.6C9.26667 6.66667 9.14167 6.73333 9.025 6.8C8.90833 6.86667 8.78333 6.94167 8.65 7.025L8.625 7.05C8.375 7.21667 8.09167 7.33333 7.775 7.4C7.45833 7.45 7.14167 7.425 6.825 7.325L5 6.725C4.85 6.69167 4.875 6.60833 5.075 6.475C5.29167 6.34167 5.51667 6.25833 5.75 6.225C6 6.175 6.08333 6.21667 6 6.35L4.15 9.65C4.06667 9.78333 3.98333 9.73333 3.9 9.5C3.83333 9.26667 3.8 9.025 3.8 8.775C3.8 8.525 3.85833 8.45833 3.975 8.575L5.35 9.85C5.6 10.0833 5.78333 10.35 5.9 10.65C6.01667 10.9333 6.05833 11.2333 6.025 11.55C6.00833 11.65 6 11.8 6 12C6 12.2 6.00833 12.35 6.025 12.45C6.05833 12.7667 6.01667 13.075 5.9 13.375C5.78333 13.6583 5.6 13.9167 5.35 14.15L3.975 15.425C3.85833 15.5417 3.8 15.475 3.8 15.225C3.8 14.975 3.83333 14.7333 3.9 14.5C3.98333 14.2667 4.06667 14.2167 4.15 14.35L6 17.65C6.08333 17.7833 6 17.825 5.75 17.775C5.51667 17.725 5.29167 17.6417 5.075 17.525C4.875 17.3917 4.85 17.3 5 17.25L6.825 16.675C7.14167 16.575 7.45833 16.55 7.775 16.6C8.09167 16.65 8.375 16.7667 8.625 16.95L8.65 16.975C8.78333 17.0417 8.90833 17.1167 9.025 17.2C9.14167 17.2667 9.26667 17.3333 9.4 17.4C9.68333 17.5333 9.925 17.725 10.125 17.975C10.325 18.2083 10.4583 18.4917 10.525 18.825L10.95 20.675C10.9833 20.8417 10.8917 20.8667 10.675 20.75C10.475 20.6167 10.2833 20.4583 10.1 20.275C9.93333 20.0917 9.93333 20 10.1 20H13.9ZM12 16C11.2833 16 10.6167 15.825 10 15.475C9.38333 15.1083 8.89167 14.6167 8.525 14C8.175 13.3833 8 12.7167 8 12C8 11.2833 8.175 10.6167 8.525 10C8.89167 9.38333 9.38333 8.9 10 8.55C10.6167 8.18333 11.2833 8 12 8C12.7167 8 13.3833 8.18333 14 8.55C14.6167 8.9 15.1 9.38333 15.45 10C15.8167 10.6167 16 11.2833 16 12C16 12.7167 15.8167 13.3833 15.45 14C15.1 14.6167 14.6167 15.1083 14 15.475C13.3833 15.825 12.7167 16 12 16ZM12 14C12.55 14 13.0167 13.8083 13.4 13.425C13.8 13.025 14 12.55 14 12C14 11.45 13.8 10.9833 13.4 10.6C13.0167 10.2 12.55 10 12 10C11.45 10 10.975 10.2 10.575 10.6C10.1917 10.9833 10 11.45 10 12C10 12.55 10.1917 13.025 10.575 13.425C10.975 13.8083 11.45 14 12 14Z" fill="#181A1B"/>
</svg>
