<svg width="24" height="24" viewBox="0 0 24 24" fill="none" xmlns="http://www.w3.org/2000/svg">
<path d="M7 21C6.28333 21 5.61667 20.825 5 20.475C4.38333 20.1083 3.89167 19.6167 3.525 19C3.175 18.3833 3 17.7167 3 17V11.825C2.46667 11.275 2.10833 10.625 1.925 9.875C1.74167 9.10833 1.79167 8.34167 2.075 7.575L2.825 5.6C3.125 4.81667 3.61667 4.19167 4.3 3.725C4.98333 3.24167 5.74167 3 6.575 3H17.425C18.2583 3 19.0167 3.24167 19.7 3.725C20.3833 4.19167 20.875 4.80833 21.175 5.575L21.925 7.575C22.2083 8.34167 22.2583 9.10833 22.075 9.875C21.9083 10.625 21.55 11.275 21 11.825V17C21 17.7167 20.8167 18.3833 20.45 19C20.1 19.6167 19.6167 20.1083 19 20.475C18.3833 20.825 17.7167 21 17 21H7ZM17 19C17.6333 19 18.125 18.825 18.475 18.475C18.825 18.1083 19 17.6167 19 17V12.85C18.6833 12.95 18.4 13 18.15 13C17.55 13 16.9833 12.8667 16.45 12.6C15.9333 12.3333 15.4917 11.975 15.125 11.525C14.7583 11.975 14.3167 12.3333 13.8 12.6C13.2833 12.8667 12.7167 13 12.1 13H11.9C11.3 13 10.7333 12.8667 10.2 12.6C9.68333 12.3333 9.24167 11.975 8.875 11.525C8.525 11.975 8.08333 12.3333 7.55 12.6C7.01667 12.8667 6.45 13 5.85 13C5.61667 13 5.33333 12.95 5 12.85V17C5 17.6167 5.175 18.1083 5.525 18.475C5.89167 18.825 6.38333 19 7 19H17ZM5.85 11C6.41667 11 6.875 10.85 7.225 10.55C7.575 10.25 7.78333 9.81667 7.85 9.25L8.375 5H6.575C6.10833 5 5.71667 5.10833 5.4 5.325C5.1 5.525 4.875 5.84167 4.725 6.275L3.975 8.275C3.79167 8.775 3.75 9.23333 3.85 9.65C3.96667 10.05 4.2 10.375 4.55 10.625C4.9 10.875 5.33333 11 5.85 11ZM12.1 11C12.55 11 12.9333 10.9083 13.25 10.725C13.5667 10.525 13.8 10.2583 13.95 9.925C14.1 9.59167 14.15 9.20833 14.1 8.775L13.625 5H10.375L9.9 8.775C9.85 9.20833 9.9 9.59167 10.05 9.925C10.2 10.2583 10.4333 10.525 10.75 10.725C11.0667 10.9083 11.45 11 11.9 11H12.1ZM18.15 11C18.6833 11 19.125 10.875 19.475 10.625C19.825 10.375 20.05 10.05 20.15 9.65C20.25 9.23333 20.2167 8.775 20.05 8.275L19.3 6.275C19.1333 5.84167 18.8917 5.525 18.575 5.325C18.275 5.10833 17.8917 5 17.425 5H15.65L16.15 9.25C16.2333 9.81667 16.4417 10.25 16.775 10.55C17.125 10.85 17.5833 11 18.15 11Z" fill="#181A1B"/>
</svg>
